# xmcd
#
# Track frame offsets: 
#        182
#        14815
#        36042
#        51682
#        69067
#        85795
#        101222
#        117987
#        132727
#        146717
#
# Disc length: 2195 seconds
#
# Revision: 6
# Processed by: cddbd v1.5.2PL0 Copyright (c) Steve Scherf et al.
# Submitted via: ExactAudioCopyFreeDBPlugin 1.0
#
DISCID=9708910a
DTITLE=Melodie Crittenden - Melodie Crittenden
DYEAR=1998
DGENRE=Country
TTITLE0=I've Been Waiting For You
TTITLE1=Birmingham
TTITLE2=This Thing Called Livin'
TTITLE3=Broken Road
TTITLE4=I Should've Known
TTITLE5=If This Ain't Love
TTITLE6=Chains Around My Heart
TTITLE7=Never Underestimate A Bored Housewife
TTITLE8=You Make Me Crazy
TTITLE9=With His Arms Wide Open
EXTD=
EXTT0=
EXTT1=
EXTT2=
EXTT3=
EXTT4=
EXTT5=
EXTT6=
EXTT7=
EXTT8=
EXTT9=
PLAYORDER=
